<svg xmlns="http://www.w3.org/2000/svg" width="400" height="340"><linearGradient id="grad1" x1="0%" y1="0%" x2="100%" y2="0%"><stop offset="0%" style="stop-color:#ffffff;stop-opacity:1" /><stop offset="100%" style="stop-color:#ff0044;stop-opacity:1" /></linearGradient><path fill="url(#grad1)" d="M258.4380188286169,260.6443237340506C245.24017950994835,278.4425286639707,246.30642436743673,317.2757726302591,228.82982242393993,326.7892295795204C211.35322048044313,336.3026865287817,177.7991710228689,327.84988241151507,153.57840716763607,317.7250654296184C129.35764331240324,307.6002484477217,87.84232045259093,287.32903709907566,83.50523929254287,266.0403276881404C79.16815813249481,244.75161827720515,112.63727145364703,208.34223136311041,127.55592020734771,189.99280896400688C142.4745689610484,171.64338656490335,155.4339686772292,172.73439974350066,173.017131814747,155.94379329351926C190.6002949522648,139.15318684353787,210.93004204363763,91.96604330985073,233.05489903245453,89.24917026411848C255.17975602127143,86.53229721838622,293.2726138637323,117.85075006314547,305.7662737476484,139.64255501912572C318.25993363156454,161.43435997510596,315.9049008224565,199.83303854751253,308.01685833595127,220C300.128815849446,240.16696145248747,271.6358581472855,242.84611880413053,258.4380188286169,260.6443237340506" stroke="none" stroke-width="3"/></svg>